<svg id="visual" viewBox="0 0 900 600" width="900" height="600" xmlns="http://www.w3.org/2000/svg" xmlns:xlink="http://www.w3.org/1999/xlink" version="1.1"><rect x="0" y="0" width="900" height="600" fill="#0061ff"></rect><defs><linearGradient id="grad1_0" x1="33.3%" y1="0%" x2="100%" y2="100%"><stop offset="20%" stop-color="#60efff" stop-opacity="1"></stop><stop offset="80%" stop-color="#60efff" stop-opacity="1"></stop></linearGradient></defs><defs><linearGradient id="grad1_1" x1="33.3%" y1="0%" x2="100%" y2="100%"><stop offset="20%" stop-color="#60efff" stop-opacity="1"></stop><stop offset="80%" stop-color="#00e0ff" stop-opacity="1"></stop></linearGradient></defs><defs><linearGradient id="grad1_2" x1="33.3%" y1="0%" x2="100%" y2="100%"><stop offset="20%" stop-color="#00cfff" stop-opacity="1"></stop><stop offset="80%" stop-color="#00e0ff" stop-opacity="1"></stop></linearGradient></defs><defs><linearGradient id="grad1_3" x1="33.3%" y1="0%" x2="100%" y2="100%"><stop offset="20%" stop-color="#00cfff" stop-opacity="1"></stop><stop offset="80%" stop-color="#00bdff" stop-opacity="1"></stop></linearGradient></defs><defs><linearGradient id="grad1_4" x1="33.3%" y1="0%" x2="100%" y2="100%"><stop offset="20%" stop-color="#00aaff" stop-opacity="1"></stop><stop offset="80%" stop-color="#00bdff" stop-opacity="1"></stop></linearGradient></defs><defs><linearGradient id="grad1_5" x1="33.3%" y1="0%" x2="100%" y2="100%"><stop offset="20%" stop-color="#00aaff" stop-opacity="1"></stop><stop offset="80%" stop-color="#0095ff" stop-opacity="1"></stop></linearGradient></defs><defs><linearGradient id="grad1_6" x1="33.3%" y1="0%" x2="100%" y2="100%"><stop offset="20%" stop-color="#007dff" stop-opacity="1"></stop><stop offset="80%" stop-color="#0095ff" stop-opacity="1"></stop></linearGradient></defs><defs><linearGradient id="grad1_7" x1="33.3%" y1="0%" x2="100%" y2="100%"><stop offset="20%" stop-color="#007dff" stop-opacity="1"></stop><stop offset="80%" stop-color="#0061ff" stop-opacity="1"></stop></linearGradient></defs><defs><linearGradient id="grad2_0" x1="0%" y1="0%" x2="66.7%" y2="100%"><stop offset="20%" stop-color="#60efff" stop-opacity="1"></stop><stop offset="80%" stop-color="#60efff" stop-opacity="1"></stop></linearGradient></defs><defs><linearGradient id="grad2_1" x1="0%" y1="0%" x2="66.7%" y2="100%"><stop offset="20%" stop-color="#00e0ff" stop-opacity="1"></stop><stop offset="80%" stop-color="#60efff" stop-opacity="1"></stop></linearGradient></defs><defs><linearGradient id="grad2_2" x1="0%" y1="0%" x2="66.7%" y2="100%"><stop offset="20%" stop-color="#00e0ff" stop-opacity="1"></stop><stop offset="80%" stop-color="#00cfff" stop-opacity="1"></stop></linearGradient></defs><defs><linearGradient id="grad2_3" x1="0%" y1="0%" x2="66.7%" y2="100%"><stop offset="20%" stop-color="#00bdff" stop-opacity="1"></stop><stop offset="80%" stop-color="#00cfff" stop-opacity="1"></stop></linearGradient></defs><defs><linearGradient id="grad2_4" x1="0%" y1="0%" x2="66.7%" y2="100%"><stop offset="20%" stop-color="#00bdff" stop-opacity="1"></stop><stop offset="80%" stop-color="#00aaff" stop-opacity="1"></stop></linearGradient></defs><defs><linearGradient id="grad2_5" x1="0%" y1="0%" x2="66.7%" y2="100%"><stop offset="20%" stop-color="#0095ff" stop-opacity="1"></stop><stop offset="80%" stop-color="#00aaff" stop-opacity="1"></stop></linearGradient></defs><defs><linearGradient id="grad2_6" x1="0%" y1="0%" x2="66.7%" y2="100%"><stop offset="20%" stop-color="#0095ff" stop-opacity="1"></stop><stop offset="80%" stop-color="#007dff" stop-opacity="1"></stop></linearGradient></defs><defs><linearGradient id="grad2_7" x1="0%" y1="0%" x2="66.7%" y2="100%"><stop offset="20%" stop-color="#0061ff" stop-opacity="1"></stop><stop offset="80%" stop-color="#007dff" stop-opacity="1"></stop></linearGradient></defs><g transform="translate(900, 0)"><path d="M0 540.8C-23.6 536.2 -47.2 531.6 -68.8 522.5C-90.4 513.3 -110.1 499.6 -132.8 495.5C-155.5 491.4 -181.2 496.8 -204 492.4C-226.8 488 -246.7 473.8 -264.5 458.1C-282.3 442.5 -297.9 425.5 -315.9 411.8C-334 398 -354.6 387.4 -374.8 374.8C-395 362.1 -414.8 347.3 -426.8 327.5C-438.9 307.7 -443.1 282.9 -454.7 262.5C-466.2 242.1 -485.2 226 -498 206.3C-510.8 186.6 -517.4 163.2 -522.4 140C-527.4 116.7 -530.6 93.5 -533.4 70.2C-536.2 46.9 -538.5 23.5 -540.8 0L0 0Z" fill="#0070ff"></path><path d="M0 473.2C-20.6 469.2 -41.3 465.2 -60.2 457.2C-79.1 449.2 -96.3 437.2 -116.2 433.6C-136 430 -158.5 434.7 -178.5 430.9C-198.4 427 -215.9 414.5 -231.4 400.9C-247 387.2 -260.6 372.3 -276.5 360.3C-292.3 348.2 -310.3 339 -327.9 327.9C-345.6 316.8 -362.9 303.9 -373.5 286.6C-384 269.3 -387.7 247.6 -397.8 229.7C-408 211.8 -424.5 197.7 -435.7 180.5C-446.9 163.2 -452.8 142.8 -457.1 122.5C-461.4 102.1 -464.3 81.8 -466.7 61.4C-469.2 41 -471.2 20.5 -473.2 0L0 0Z" fill="#0089ff"></path><path d="M0 405.6C-17.7 402.2 -35.4 398.7 -51.6 391.9C-67.8 385 -82.6 374.7 -99.6 371.6C-116.6 368.5 -135.9 372.6 -153 369.3C-170.1 366 -185 355.3 -198.4 343.6C-211.7 331.9 -223.4 319.1 -237 308.8C-250.5 298.5 -265.9 290.6 -281.1 281.1C-296.2 271.6 -311.1 260.5 -320.1 245.6C-329.1 230.8 -332.3 212.2 -341 196.9C-349.7 181.5 -363.9 169.5 -373.5 154.7C-383.1 139.9 -388.1 122.4 -391.8 105C-395.5 87.5 -398 70.2 -400 52.7C-402.1 35.2 -403.9 17.6 -405.6 0L0 0Z" fill="#00a0ff"></path><path d="M0 338C-14.7 335.1 -29.5 332.3 -43 326.6C-56.5 320.8 -68.8 312.3 -83 309.7C-97.2 307.1 -113.2 310.5 -127.5 307.8C-141.7 305 -154.2 296.1 -165.3 286.3C-176.4 276.6 -186.2 265.9 -197.5 257.3C-208.8 248.7 -221.6 242.1 -234.2 234.2C-246.8 226.3 -259.2 217.1 -266.8 204.7C-274.3 192.3 -276.9 176.8 -284.2 164.1C-291.4 151.3 -303.2 141.2 -311.2 128.9C-319.2 116.6 -323.4 102 -326.5 87.5C-329.6 73 -331.6 58.5 -333.4 43.9C-335.1 29.3 -336.6 14.7 -338 0L0 0Z" fill="#00b4ff"></path><path d="M0 270.4C-11.8 268.1 -23.6 265.8 -34.4 261.2C-45.2 256.7 -55 249.8 -66.4 247.8C-77.7 245.7 -90.6 248.4 -102 246.2C-113.4 244 -123.4 236.9 -132.2 229.1C-141.1 221.3 -148.9 212.8 -158 205.9C-167 199 -177.3 193.7 -187.4 187.4C-197.5 181 -207.4 173.7 -213.4 163.8C-219.4 153.9 -221.5 141.5 -227.3 131.3C-233.1 121 -242.6 113 -249 103.1C-255.4 93.3 -258.7 81.6 -261.2 70C-263.7 58.4 -265.3 46.8 -266.7 35.1C-268.1 23.5 -269.3 11.7 -270.4 0L0 0Z" fill="#00c6ff"></path><path d="M0 202.8C-8.8 201.1 -17.7 199.4 -25.8 195.9C-33.9 192.5 -41.3 187.4 -49.8 185.8C-58.3 184.3 -67.9 186.3 -76.5 184.7C-85 183 -92.5 177.7 -99.2 171.8C-105.9 165.9 -111.7 159.6 -118.5 154.4C-125.3 149.2 -133 145.3 -140.5 140.5C-148.1 135.8 -155.5 130.2 -160.1 122.8C-164.6 115.4 -166.2 106.1 -170.5 98.4C-174.8 90.8 -181.9 84.7 -186.7 77.3C-191.5 70 -194 61.2 -195.9 52.5C-197.8 43.8 -199 35.1 -200 26.3C-201.1 17.6 -201.9 8.8 -202.8 0L0 0Z" fill="#00d7ff"></path><path d="M0 135.2C-5.9 134.1 -11.8 132.9 -17.2 130.6C-22.6 128.3 -27.5 124.9 -33.2 123.9C-38.9 122.8 -45.3 124.2 -51 123.1C-56.7 122 -61.7 118.4 -66.1 114.5C-70.6 110.6 -74.5 106.4 -79 102.9C-83.5 99.5 -88.6 96.9 -93.7 93.7C-98.7 90.5 -103.7 86.8 -106.7 81.9C-109.7 76.9 -110.8 70.7 -113.7 65.6C-116.6 60.5 -121.3 56.5 -124.5 51.6C-127.7 46.6 -129.4 40.8 -130.6 35C-131.8 29.2 -132.7 23.4 -133.3 17.6C-134 11.7 -134.6 5.9 -135.2 0L0 0Z" fill="#36e7ff"></path><path d="M0 67.6C-2.9 67 -5.9 66.5 -8.6 65.3C-11.3 64.2 -13.8 62.5 -16.6 61.9C-19.4 61.4 -22.6 62.1 -25.5 61.6C-28.3 61 -30.8 59.2 -33.1 57.3C-35.3 55.3 -37.2 53.2 -39.5 51.5C-41.8 49.7 -44.3 48.4 -46.8 46.8C-49.4 45.3 -51.8 43.4 -53.4 40.9C-54.9 38.5 -55.4 35.4 -56.8 32.8C-58.3 30.3 -60.6 28.2 -62.2 25.8C-63.8 23.3 -64.7 20.4 -65.3 17.5C-65.9 14.6 -66.3 11.7 -66.7 8.8C-67 5.9 -67.3 2.9 -67.6 0L0 0Z" fill="#60efff"></path></g><g transform="translate(0, 600)"><path d="M0 -540.8C23.9 -540.7 47.9 -540.6 70.1 -532.4C92.3 -524.2 112.8 -508 133 -496.5C153.3 -485 173.3 -478.3 197.1 -475.8C220.9 -473.3 248.4 -475 267.5 -463.3C286.6 -451.7 297.2 -426.8 317.2 -413.3C337.1 -399.9 366.3 -397.9 382.4 -382.4C398.6 -366.9 401.6 -337.8 411.8 -315.9C421.9 -294.1 439.1 -279.4 453.8 -262C468.5 -244.6 480.7 -224.5 491.5 -203.6C502.3 -182.6 511.9 -160.8 514.8 -138C517.8 -115.1 514.3 -91.3 517.5 -68.1C520.8 -45 530.8 -22.5 540.8 0L0 0Z" fill="#0070ff"></path><path d="M0 -473.2C20.9 -473.1 41.9 -473 61.3 -465.9C80.8 -458.7 98.7 -444.5 116.4 -434.4C134.1 -424.4 151.6 -418.5 172.4 -416.3C193.3 -414.1 217.4 -415.6 234.1 -405.4C250.8 -395.2 260.1 -373.4 277.5 -361.7C295 -349.9 320.5 -348.2 334.6 -334.6C348.7 -321 351.4 -295.6 360.3 -276.5C369.2 -257.3 384.2 -244.5 397.1 -229.3C409.9 -214 420.6 -196.5 430.1 -178.1C439.6 -159.8 447.9 -140.7 450.5 -120.7C453.1 -100.7 450 -79.9 452.8 -59.6C455.7 -39.4 464.5 -19.7 473.2 0L0 0Z" fill="#0089ff"></path><path d="M0 -405.6C18 -405.5 35.9 -405.4 52.6 -399.3C69.2 -393.2 84.6 -381 99.8 -372.4C115 -363.8 130 -358.7 147.8 -356.8C165.6 -355 186.3 -356.2 200.6 -347.5C214.9 -338.8 222.9 -320.1 237.9 -310C252.8 -299.9 274.7 -298.5 286.8 -286.8C298.9 -275.2 301.2 -253.4 308.8 -237C316.4 -220.5 329.3 -209.5 340.3 -196.5C351.4 -183.5 360.5 -168.4 368.6 -152.7C376.8 -137 383.9 -120.6 386.1 -103.5C388.4 -86.3 385.7 -68.5 388.2 -51.1C390.6 -33.7 398.1 -16.9 405.6 0L0 0Z" fill="#00a0ff"></path><path d="M0 -338C15 -337.9 29.9 -337.9 43.8 -332.8C57.7 -327.6 70.5 -317.5 83.1 -310.3C95.8 -303.1 108.3 -298.9 123.2 -297.4C138 -295.8 155.3 -296.8 167.2 -289.6C179.1 -282.3 185.8 -266.7 198.2 -258.3C210.7 -249.9 228.9 -248.7 239 -239C249.1 -229.3 251 -211.1 257.3 -197.5C263.7 -183.8 274.4 -174.6 283.6 -163.8C292.8 -152.9 300.4 -140.3 307.2 -127.2C314 -114.1 319.9 -100.5 321.8 -86.2C323.6 -71.9 321.4 -57.1 323.5 -42.6C325.5 -28.1 331.8 -14.1 338 0L0 0Z" fill="#00b4ff"></path><path d="M0 -270.4C12 -270.4 23.9 -270.3 35 -266.2C46.2 -262.1 56.4 -254 66.5 -248.2C76.6 -242.5 86.7 -239.2 98.5 -237.9C110.4 -236.6 124.2 -237.5 133.7 -231.7C143.3 -225.8 148.6 -213.4 158.6 -206.7C168.5 -199.9 183.1 -199 191.2 -191.2C199.3 -183.5 200.8 -168.9 205.9 -158C210.9 -147 219.6 -139.7 226.9 -131C234.2 -122.3 240.3 -112.3 245.8 -101.8C251.2 -91.3 255.9 -80.4 257.4 -69C258.9 -57.6 257.1 -45.6 258.8 -34.1C260.4 -22.5 265.4 -11.2 270.4 0L0 0Z" fill="#00c6ff"></path><path d="M0 -202.8C9 -202.8 18 -202.7 26.3 -199.7C34.6 -196.6 42.3 -190.5 49.9 -186.2C57.5 -181.9 65 -179.4 73.9 -178.4C82.8 -177.5 93.2 -178.1 100.3 -173.7C107.5 -169.4 111.5 -160 118.9 -155C126.4 -150 137.4 -149.2 143.4 -143.4C149.5 -137.6 150.6 -126.7 154.4 -118.5C158.2 -110.3 164.7 -104.8 170.2 -98.3C175.7 -91.7 180.2 -84.2 184.3 -76.3C188.4 -68.5 191.9 -60.3 193.1 -51.7C194.2 -43.2 192.9 -34.2 194.1 -25.6C195.3 -16.9 199.1 -8.4 202.8 0L0 0Z" fill="#00d7ff"></path><path d="M0 -135.2C6 -135.2 12 -135.1 17.5 -133.1C23.1 -131.1 28.2 -127 33.3 -124.1C38.3 -121.3 43.3 -119.6 49.3 -118.9C55.2 -118.3 62.1 -118.7 66.9 -115.8C71.6 -112.9 74.3 -106.7 79.3 -103.3C84.3 -100 91.6 -99.5 95.6 -95.6C99.6 -91.7 100.4 -84.5 102.9 -79C105.5 -73.5 109.8 -69.8 113.4 -65.5C117.1 -61.2 120.2 -56.1 122.9 -50.9C125.6 -45.7 128 -40.2 128.7 -34.5C129.5 -28.8 128.6 -22.8 129.4 -17C130.2 -11.2 132.7 -5.6 135.2 0L0 0Z" fill="#36e7ff"></path><path d="M0 -67.6C3 -67.6 6 -67.6 8.8 -66.6C11.5 -65.5 14.1 -63.5 16.6 -62.1C19.2 -60.6 21.7 -59.8 24.6 -59.5C27.6 -59.2 31.1 -59.4 33.4 -57.9C35.8 -56.5 37.2 -53.3 39.6 -51.7C42.1 -50 45.8 -49.7 47.8 -47.8C49.8 -45.9 50.2 -42.2 51.5 -39.5C52.7 -36.8 54.9 -34.9 56.7 -32.8C58.6 -30.6 60.1 -28.1 61.4 -25.4C62.8 -22.8 64 -20.1 64.4 -17.2C64.7 -14.4 64.3 -11.4 64.7 -8.5C65.1 -5.6 66.4 -2.8 67.6 0L0 0Z" fill="#60efff"></path></g></svg>