<?xml version="1.0" standalone="no"?>
<!DOCTYPE svg PUBLIC "-//W3C//DTD SVG 20010904//EN"
 "http://www.w3.org/TR/2001/REC-SVG-20010904/DTD/svg10.dtd">
<svg version="1.0" xmlns="http://www.w3.org/2000/svg"
 width="300.000000pt" height="300.000000pt" viewBox="0 0 300.000000 300.000000"
 preserveAspectRatio="xMidYMid meet">

<g transform="translate(0.000000,300.000000) scale(0.100000,-0.100000)"
fill="#000000" stroke="none">
<path d="M1057 2283 c-4 -3 -7 -59 -7 -122 l0 -117 68 -66 c65 -65 69 -67 122
-70 l55 -3 3 -211 2 -211 65 -67 64 -66 141 0 c77 0 139 3 139 8 -1 4 -1 130
0 280 l1 272 120 0 120 0 0 123 0 123 -68 67 -68 67 -375 0 c-207 0 -379 -3
-382 -7z m123 -63 c0 -13 7 -20 20 -20 13 0 20 7 20 20 0 17 7 20 40 20 38 0
40 -2 40 -30 0 -23 -4 -30 -20 -30 -14 0 -20 -7 -20 -21 0 -16 5 -20 20 -16
17 4 20 0 20 -24 0 -27 -3 -29 -39 -29 -30 0 -40 4 -44 20 -3 11 -10 20 -17
20 -7 0 -14 -9 -17 -20 -4 -16 -14 -20 -44 -20 -35 0 -39 3 -39 25 0 18 5 25
20 25 13 0 20 7 20 20 0 13 -7 20 -20 20 -16 0 -20 7 -20 30 0 28 2 30 40 30
33 0 40 -3 40 -20z m590 -5 l0 -25 -210 0 -210 0 0 25 0 25 210 0 210 0 0 -25z
m0 -100 l0 -25 -210 0 -210 0 0 25 0 25 210 0 210 0 0 -25z"/>
<path d="M380 1120 c0 -22 5 -30 18 -30 10 0 23 5 30 12 9 9 12 -2 12 -50 0
-35 -4 -62 -10 -62 -5 0 -10 -9 -10 -20 0 -18 7 -20 55 -20 48 0 55 2 55 20 0
11 -4 20 -10 20 -5 0 -10 24 -10 54 0 30 5 58 10 61 6 3 10 1 10 -4 0 -6 9
-11 20 -11 16 0 20 7 20 30 l0 30 -95 0 -95 0 0 -30z"/>
<path d="M672 1143 c-38 -15 -55 -120 -27 -161 30 -42 130 -46 160 -5 33 45
27 122 -13 153 -24 19 -88 26 -120 13z m70 -103 c-5 -62 -26 -63 -30 -1 -4 54
4 77 21 63 7 -7 11 -29 9 -62z"/>
<path d="M890 1131 c0 -11 5 -23 10 -26 6 -3 10 -31 10 -61 0 -30 -4 -54 -10
-54 -5 0 -10 -9 -10 -20 0 -18 7 -20 75 -20 67 0 79 3 100 25 19 18 25 35 25
69 0 24 -3 52 -6 61 -11 28 -60 45 -129 45 -58 0 -65 -2 -65 -19z m118 -84 c2
-46 0 -57 -13 -57 -12 0 -15 13 -15 61 0 81 24 77 28 -4z"/>
<path d="M1197 1130 c-32 -26 -43 -76 -27 -125 15 -46 59 -68 112 -56 49 11
55 16 68 57 26 77 -16 144 -90 144 -22 0 -48 -8 -63 -20z m81 -84 c-2 -37 -7
-51 -18 -51 -11 0 -16 13 -18 44 -4 54 3 72 23 65 12 -5 15 -18 13 -58z"/>
<path d="M1420 1131 c0 -11 5 -23 10 -26 6 -3 10 -31 10 -61 0 -30 -4 -54 -10
-54 -5 0 -10 -9 -10 -20 0 -17 7 -20 45 -20 l44 0 -4 68 -5 67 26 -67 c34 -87
54 -90 78 -13 9 30 20 55 23 55 3 0 3 -25 -1 -55 l-6 -55 47 0 48 0 0 100 0
100 -56 0 -56 0 -13 -42 -13 -43 -13 30 c-7 17 -13 36 -14 43 0 8 -20 12 -65
12 -58 0 -65 -2 -65 -19z"/>
<path d="M1821 1073 c-39 -134 -40 -123 13 -123 39 0 46 3 46 20 0 11 -5 20
-11 20 -5 0 -7 5 -4 10 3 6 13 10 20 10 11 0 13 -8 9 -30 l-6 -30 52 0 c60 0
58 -12 19 123 l-22 77 -47 0 -47 0 -22 -77z m69 -13 c0 -11 -4 -20 -9 -20 -5
0 -7 9 -4 20 3 11 7 20 9 20 2 0 4 -9 4 -20z"/>
<path d="M2020 1121 c0 -20 6 -30 20 -34 11 -3 20 -1 20 4 0 5 5 9 10 9 6 0
10 -25 10 -55 0 -30 -4 -55 -10 -55 -5 0 -10 -9 -10 -20 0 -18 7 -20 55 -20
48 0 55 2 55 20 0 11 -4 20 -10 20 -6 0 -10 27 -10 63 1 50 3 59 13 47 7 -8
20 -16 30 -16 13 -1 17 6 17 32 l0 34 -95 0 -95 0 0 -29z"/>
<path d="M2287 1071 c4 -51 2 -80 -5 -85 -6 -4 -9 -13 -5 -21 3 -10 20 -15 54
-15 42 0 49 3 49 20 0 11 -4 20 -10 20 -5 0 -10 24 -10 54 0 30 5 58 10 61 6
3 10 15 10 26 0 16 -7 19 -49 19 l-49 0 5 -79z"/>
<path d="M2477 1130 c-32 -25 -43 -76 -27 -124 14 -43 39 -59 92 -58 65 1 78
9 78 48 0 31 -3 34 -29 34 -21 0 -30 -6 -34 -21 -8 -31 -32 -17 -35 21 -5 48
5 80 23 74 8 -4 15 -12 15 -20 0 -9 11 -14 30 -14 27 0 30 3 30 34 0 26 -5 35
-22 40 -46 12 -95 6 -121 -14z"/>
<path d="M454 788 c-4 -6 2 -19 14 -29 27 -22 28 -32 2 -24 -11 3 -20 2 -20
-4 0 -16 40 -24 55 -11 21 18 19 29 -10 42 -29 13 -24 29 7 20 14 -3 19 -2 14
6 -9 15 -53 15 -62 0z"/>
<path d="M563 789 c11 -6 17 -22 17 -44 0 -19 5 -35 10 -35 6 0 10 18 10 39 0
29 5 41 18 44 9 3 -3 5 -28 6 -35 0 -41 -2 -27 -10z"/>
<path d="M660 761 c0 -22 5 -43 10 -46 6 -3 10 1 10 9 0 20 19 21 26 1 11 -28
20 -15 20 28 -1 40 -3 42 -33 45 -32 3 -33 2 -33 -37z m50 14 c0 -8 -7 -15
-15 -15 -16 0 -20 12 -8 23 11 12 23 8 23 -8z"/>
<path d="M772 758 c3 -39 6 -43 31 -46 15 -2 27 1 27 7 0 6 -9 11 -20 11 -27
0 -25 18 3 23 22 4 22 4 -3 14 l-25 11 25 10 c24 11 24 11 -8 11 -33 1 -33 1
-30 -41z"/>
<path d="M882 761 c-15 -49 -15 -58 0 -43 15 15 48 16 48 2 0 -5 4 -10 10 -10
5 0 7 8 4 18 -27 84 -44 93 -62 33z m33 -1 c3 -5 1 -10 -4 -10 -6 0 -11 5 -11
10 0 6 2 10 4 10 3 0 8 -4 11 -10z"/>
<path d="M990 754 c0 -30 4 -43 11 -38 6 3 9 15 6 25 -8 29 2 23 14 -8 l11
-28 13 25 c10 18 14 20 15 8 0 -9 5 -20 10 -23 6 -4 10 12 10 39 0 51 -23 65
-34 21 -7 -29 -26 -24 -26 6 0 10 -7 19 -15 19 -11 0 -15 -12 -15 -46z"/>
<path d="M1125 763 c1 -21 3 -41 4 -45 2 -12 51 -9 51 2 0 6 -9 10 -21 10 -17
0 -20 5 -17 32 2 17 -2 33 -8 35 -8 3 -11 -9 -9 -34z"/>
<path d="M1220 761 c0 -22 5 -43 10 -46 6 -4 10 12 10 39 0 25 -4 46 -10 46
-5 0 -10 -18 -10 -39z"/>
<path d="M1290 754 c0 -45 20 -56 20 -11 1 20 2 20 16 -5 21 -41 34 -34 34 17
0 25 -4 45 -10 45 -5 0 -10 -12 -10 -27 l-1 -28 -15 28 c-22 40 -34 33 -34
-19z"/>
<path d="M1403 758 c2 -39 5 -43 30 -46 15 -2 27 1 27 7 0 6 -9 11 -20 11 -11
0 -20 5 -20 10 0 6 9 10 20 10 27 0 25 18 -2 23 -23 4 -23 4 2 15 25 11 25 11
-7 11 -30 1 -31 0 -30 -41z"/>
<path d="M1560 793 c0 -5 7 -17 15 -27 8 -11 15 -29 15 -40 0 -26 11 -13 26
31 15 42 10 55 -9 28 -13 -16 -14 -16 -20 -1 -6 16 -27 23 -27 9z"/>
<path d="M1677 794 c-13 -13 -7 -61 9 -75 24 -20 49 1 49 42 0 29 -4 34 -25
37 -14 2 -29 0 -33 -4z m41 -37 c2 -19 -1 -27 -12 -27 -11 0 -16 10 -16 31 0
38 24 35 28 -4z"/>
<path d="M1780 771 c0 -34 26 -65 47 -57 8 3 17 6 19 6 2 0 4 18 4 40 0 22 -4
40 -10 40 -5 0 -10 -16 -10 -35 0 -24 -5 -35 -15 -35 -10 0 -15 11 -15 35 0
19 -4 35 -10 35 -5 0 -10 -13 -10 -29z"/>
<path d="M1900 755 c0 -28 4 -44 10 -40 6 3 10 13 10 22 0 11 5 9 19 -8 l19
-24 -1 45 c-2 41 -4 45 -29 48 -27 3 -28 2 -28 -43z m40 20 c0 -8 -4 -15 -10
-15 -5 0 -10 7 -10 15 0 8 5 15 10 15 6 0 10 -7 10 -15z"/>
<path d="M2068 793 c6 -2 12 -20 12 -38 0 -19 5 -37 10 -40 6 -4 10 8 10 29 0
23 6 39 18 45 13 8 9 10 -23 10 -22 0 -34 -3 -27 -6z"/>
<path d="M2172 761 c-15 -49 -15 -58 0 -43 16 16 45 15 51 0 11 -26 7 20 -4
51 -15 42 -33 39 -47 -8z"/>
<path d="M2280 781 c0 -11 9 -23 20 -26 31 -10 24 -28 -7 -20 -26 6 -27 5 -12
-10 21 -21 59 -11 59 15 0 10 -9 22 -20 25 -11 3 -20 11 -20 16 0 6 9 7 20 4
11 -4 20 -2 20 4 0 6 -13 11 -30 11 -23 0 -30 -5 -30 -19z"/>
<path d="M2380 761 c0 -22 5 -43 10 -46 6 -3 10 1 10 9 0 21 10 20 26 -1 18
-25 27 -11 13 20 -9 21 -9 30 1 42 10 12 10 15 0 15 -7 0 -19 -8 -26 -17 -13
-17 -13 -17 -14 0 0 36 -20 15 -20 -22z"/>
<path d="M2497 793 c-13 -13 -7 -32 13 -38 11 -3 20 -11 20 -16 0 -6 -9 -7
-20 -4 -11 3 -20 2 -20 -4 0 -16 40 -24 55 -11 17 14 9 37 -16 45 -10 4 -19
11 -19 16 0 6 9 7 20 4 11 -4 20 -2 20 4 0 12 -43 15 -53 4z"/>
</g>
</svg>
